<?xml version="1.0" encoding="utf-8"?>
<!-- Generator: Adobe Illustrator 19.0.0, SVG Export Plug-In . SVG Version: 6.00 Build 0)  -->
<svg version="1.1" id="Calque_1" xmlns="http://www.w3.org/2000/svg" xmlns:xlink="http://www.w3.org/1999/xlink" x="0px" y="0px"
	 viewBox="0 0 362.1 102.9" style="enable-background:new 0 0 362.1 102.9;" xml:space="preserve">
<style type="text/css">
	.vert{fill:url(#SVGID_1_);stroke:#FFFFFF;stroke-width:0.25;stroke-miterlimit:1;}
	.st0{fill:#000;}
</style>
<linearGradient id="SVGID_1_" gradientUnits="userSpaceOnUse" x1="-31.4619" y1="263.127" x2="-30.7548" y2="262.4199">
	<stop  offset="0" style="stop-color:#259E2E"/>
	<stop  offset="0.9831" style="stop-color:#1C381D"/>
</linearGradient>
<g>
	<path class="st0" d="M39.3,46.5c0.7-6.7,3.2-9.9,4.6-9.9c1.1,0,1.9,1.1,1.9,3.2C45.8,42.5,44.6,45.5,39.3,46.5 M67.3,49.5
		c0-1.5-1.3-3.1-3.6-3.2c-5.4,8.3-13.9,13.9-20.4,13.9c-3.7,0-4.6-2.4-4.6-6.7c13.1-3,17.8-9.2,17.8-17.2c0-6.7-3.6-9.8-10.2-9.8
		c-8.4,0-18.7,12-20.6,24.9c-4,5.1-7.9,8.4-10.2,8.4c-0.9,0-1.3-0.4-1.3-1.4c0-2.4,4.5-19,7.1-28.3c7.2-13.5,9.1-18.2,9.1-22.4
		c0-4.9-2.6-6.8-6.7-6.8C16.1,1,9.3,8.7,7.6,21.6C6.7,28.1,5,37.1,3.8,43.3C3.1,47.3,0,58.4,0,64.8c0,5,2,7.4,7.6,7.4
		c5.6,0,13-5,18.4-10.7c1.5,6.6,5.6,10.3,13,10.3C51.3,71.8,67.3,56.6,67.3,49.5 M128.5,58.1c0,2.5-1.9,4-4.3,4
		c-3.6,0-11.2-2.4-18.7-5c3-4.2,5-8.7,6.3-13.4C124.3,49.1,128.5,53.1,128.5,58.1 M126.9,23.4c0,3.3-1.4,8.6-4.6,13.7
		c-1.5-0.2-3.2-0.3-4.6-0.3c-1.6,0-3,0.1-4,0.3c1.4-5.3,3-12.3,4.6-22C124.8,16.2,126.9,19.2,126.9,23.4 M130.8,39.7
		c7.3-7.1,11.5-15,11.5-21.1c0-10.9-7.8-18.5-26.6-18.5C95.1,0,81,10.1,81,20.8c0,3.5,1.5,5.7,4.1,5.7c0.8,0,1.6-0.2,2.2-0.5
		c3.5-7.1,11.7-9.8,20-10.8C105.4,28,100.8,44.9,96.1,55c-7.5,0.7-10.8,1.6-10.8,5.3c0,5.9,3.8,9.7,6.2,9.7c2.3,0,4.3-1.3,8.3-4.6
		c9.5,6.2,15.4,8,22.1,8c13.9,0,20.6-7.4,20.6-17.5C142.4,51.7,140.2,44.6,130.8,39.7 M171.2,34.3c-1.4,2.8-2.2,6.8-2.1,10.1
		c0.1,3.3,1.8,7,1.8,7c-1.6,5.4-4.8,8.8-7.1,8.8c-1.7,0-3.4-1.3-3.4-6C160.4,46.4,165.3,37.1,171.2,34.3 M269.2,38.1
		c0-7.3-2.6-10.4-7.7-10.4c-5.1,0-9.5,4.7-9.5,9.7c0,0.8,0.1,1.4,0.3,2.3c3.4,1,4.4,2.4,4.4,6c0,6.3-5.3,15.2-8.8,15.2
		c-1.1,0-1.6-1.3-1.6-9.7c0-3.4,0.7-10.5,1.6-16.4c11.7-16.3,15.1-23.5,15.1-27.3c0-4.6-2.4-6.5-6.2-6.5C245.3,1,234,27.2,232.5,50
		c-5,6.4-9.7,10.2-11.4,10.2c-0.9,0-1.4-0.4-1.4-1.4c0-2.4,3.1-9.2,4.8-13.4c2-4.6,2.8-7.9,2.8-10.5c0-3.7-2.2-6.6-6.6-6.6
		c-4.2,0-10.8,4.3-17.8,16.3c2.6-4.7,3.8-11.4,3.8-13.8c0-2.9-0.9-4-4.1-4c-5.9,0-14.4,10-14.4,15.7c0,0.4,0.2,0.9,0.2,1.3
		c-1.7,1.7-3.4,2.8-5,2.8c-1,0-1.6-0.4-1.9-0.7c0,0,0.7-1.9,0.7-6.5c0-4.3-1.9-9.5-5.8-9.5c-1.5,0-2.4,0.4-3.3,1.3
		c-0.1-3.2-3.2-4.2-5.6-4.2c-10.1,0-20.6,14.7-20.6,30.6c0,9.4,5.3,13.9,12.1,13.9c6.7,0,15.6-4.5,19.7-16.5c0,0,1.8,1.2,4.4,0.8
		c1.7-0.3,3.2-1,4.6-1.8c-0.5,2.2-0.8,4.3-0.8,6.3c0.1,5.7,4,10.8,9.4,10.8c2.2,0,2.9-0.3,3.8-1.2c0.3-6.5,0.8-10.8,2.2-18.2
		c3.7-5.2,6.9-6.6,7.7-6.6c0.8,0,1.2,0.4,1.2,1.1c0,2.1-4.9,11.8-4.9,18.1c0,5.3,1.9,7.7,7.5,7.7c5.4,0,13.5-6,19-12.1
		c1.1,8.2,4.9,12.1,11.3,12.1C256.6,72.2,269.2,52.9,269.2,38.1 M294.5,34.3c-1.4,2.8-2.2,6.8-2.1,10.1c0.1,3.3,1.8,7,1.8,7
		c-1.6,5.4-4.8,8.8-7.1,8.8c-1.7,0-3.5-1.3-3.5-6C283.7,46.4,288.6,37.1,294.5,34.3 M362.1,50c0-1.9-1.9-3.2-3.7-3.2
		c-5.9,8.5-11.9,13.4-13.9,13.4c-0.9,0-1.3-0.4-1.3-1.4c0-2.4,3.1-9.2,4.8-13.4c2-4.6,2.8-7.9,2.8-10.5c0-3.7-2.2-6.6-6.6-6.6
		c-4.2,0-10.8,4.3-17.8,16.3c2.6-4.7,3.8-11.4,3.8-13.8c0-2.9-0.9-4-4.1-4c-5.9,0-14.4,10-14.4,15.7c0,0.4,0.2,0.9,0.2,1.3
		c-1.7,1.7-3.4,2.8-5.1,2.8c-0.9,0-1.6-0.4-1.9-0.7c0,0,0.7-1.9,0.7-6.5c0-4.3-1.9-9.5-5.8-9.5c-1.5,0-2.4,0.4-3.3,1.3
		c-0.1-3.2-3.2-4.2-5.6-4.2c-10.1,0-20.6,14.7-20.6,30.6c0,9.4,5.4,13.9,12.1,13.9c6.7,0,15.6-4.5,19.7-16.5c0,0,1.8,1.2,4.4,0.8
		c1.7-0.3,3.2-1,4.6-1.8c-0.5,2.2-0.8,4.3-0.8,6.3c0.1,5.7,4,10.8,9.4,10.8c2.2,0,2.9-0.3,3.8-1.2c0.3-6.5,0.9-10.8,2.2-18.2
		c3.7-5.2,6.9-6.6,7.7-6.6c0.8,0,1.1,0.4,1.1,1.1c0,2.1-4.9,11.8-4.9,18.1c0,5.3,1.9,7.7,7.5,7.7C345.9,72.2,362.1,56,362.1,50"/>
	<path class="st0" d="M226.4,100.9c17.4,0,26.6-5.9,26.6-12.1c0-1.8-0.8-3.8-2.3-4.5c-4.6,1.8-11.9,3.5-29.7,3.5
		c-82.1,0-111.8,3.8-111.8,13.1c0,0.8,0.3,1.6,0.8,2c11.5-2.8,24.2-3.8,39.8-3.8C169.1,99.1,207.6,100.9,226.4,100.9"/>
</g>
</svg>
